<?xml version="1.0" encoding="UTF-8" standalone="no"?>
<svg style="enable-background:new 0 0 575 270" xmlns="http://www.w3.org/2000/svg" xml:space="preserve" viewBox="0 0 575 270" version="1.1" y="0px" x="0px" xmlns:xlink="http://www.w3.org/1999/xlink">
<style type="text/css">
	.st0{fill:#332D2B;stroke:#332D2B;stroke-miterlimit:10;}
	.st1{fill:#332D2B;}
	.st2{fill:none;stroke:#332D2B;stroke-miterlimit:10;}
	.st3{clip-path:url(#SVGID_2_);}
</style>
	<g id="g10_1_" transform="matrix(1.25 0 0 -1.25 0 1.05e3)">
		<path id="path12_1_" d="m450 830h-448v11h448v-11z" class="st0"/>
		<path id="path14_1_" d="m450 685h-444v11h444v-11z" class="st0"/>
		<path id="path16_1_" d="m2.2 841h9v-156h-9v156z" class="st0"/>
		<path id="path18_1_" d="m450 841h9v-156h-9v156z" class="st0"/>
		<g id="g20_1_" transform="translate(148 358)">
			<path id="path22_1_" d="m-70.8 328l-14.3 5.2 53.2 147 14.3-5.2-53.2-147z" class="st1"/>
		</g>
		<g id="g24_1_" transform="translate(148 358)">
			<path id="path26_1_" d="m-70.8 328l-14.3 5.2 53.2 147 14.3-5.2-53.2-147z" class="st2"/>
		</g>
		<g id="g28_1_" transform="translate(249 363)">
			<path id="path30_1_" d="m-70.8 328l-14.4-5-50.8 148 14.4 5 51.2-148z" class="st1"/>
		</g>
		<g id="g32_1_" transform="translate(249 363)">
			<path id="path34_1_" d="m-70.8 328l-14.4-5-50.8 148 14.4 5 51.2-148z" class="st2"/>
		</g>
		<g id="g36_1_" transform="translate(368 358)">
			<path id="path38_1_" d="m-70.8 328l-14.3 5.2 53.2 147 14.3-5.2-53.2-147z" class="st1"/>
		</g>
		<g id="g40_1_" transform="translate(368 358)">
			<path id="path42_1_" d="m-70.8 328l-14.3 5.2 53.2 147 14.3-5.2-53.2-147z" class="st2"/>
		</g>
		<g id="g44_1_" transform="translate(469 363)">
			<path id="path46_1_" d="m-70.8 328l-14.4-5-50.8 148 14.4 5 51.2-148z" class="st1"/>
		</g>
		<g id="g48_1_" transform="translate(469 363)">
			<path id="path50_1_" d="m-70.8 328l-14.4-5-50.8 148 14.4 5 51.2-148z" class="st2"/>
		</g>
		<g id="g52_1_">
				<defs>
					<rect id="SVGID_1_" y="223" x="-145" height="1.05e3" width="744"/>
				</defs>
				<clipPath id="SVGID_2_">
					<use xlink:href="#SVGID_1_"/>
				</clipPath>
				<g id="g54_1_" class="st3">
					<g id="g60_1_" transform="translate(267 448)">
						<path id="path62_1_" d="m-70.8 328h14.1l1.4-11.4h0.5c7.6 7.3 16 13.5 27.3 13.5 17.5 0 25.3-11.7 25.3-32.7v-51.9h-17.2v49.8c0 14.3-4.2 19.9-13.9 19.9-7.6 0-12.9-3.9-20.3-11.2v-58.5h-17.1v82z" class="st1"/>
					</g>
					<g id="g64_1_" transform="translate(102 320)">
						<path id="path66_1_" d="m-70.8 328l-1.8 5.3c-1.2 3.4-2.2 6.5-3.2 10h-0.2c-1-3.5-2-6.6-3.2-10l-1.8-5.3h10.2zm0.6-2h-11.4l-3.3-9.8h-2.4l10.2 29.2h2.5l10.2-29.2h-2.6s-3.2 10-3.2 10z" class="st1"/>
					</g>
					<g id="g68_1_" transform="translate(112 330)">
						<path id="path70_1_" d="m-70.8 328h1.9l0.3-3.2h0.1c2.2 2.1 4.4 3.8 7.3 3.8 4.4 0 6.5-2.8 6.5-8.2v-13.6h-2.3v13.3c0 4.4-1.4 6.5-4.7 6.5-2.5 0-4.2-1.3-6.7-3.8v-16h-2.3v22z" class="st1"/>
					</g>
					<g id="g72_1_" transform="translate(150 313)">
						<path id="path74_1_" d="m-70.8 328v12.3c-2.2 1.9-4 2.6-6 2.6-4.1 0-7.2-4-7.2-9.2 0-5.5 2.4-9.1 6.8-9.1 2.2 0 4.2 1 6.4 3m-15.7 6c0 6.9 4.4 11.2 9.4 11.2 2.6 0 4.3-1 6.4-2.6l-0.2 3.8v8.7h2.3v-31.8h-1.9l-0.3 2.7h-0.1c-1.7-1.7-4.1-3.2-6.8-3.2-5.3 0-8.8 4-8.8 11" class="st1"/>
					</g>
					<g id="g76_1_" transform="translate(160 330)">
						<path id="path78_1_" d="m-70.8 328h1.9l0.3-4h0.1c1.4 2.7 3.6 4.5 6 4.5 0.8 0 1.5-0.1 2.2-0.5l-0.5-2.1c-0.7 0.3-1.1 0.4-2 0.4-1.9 0-4.2-1.4-5.7-5.4v-14.3h-2.3v21z" class="st1"/>
					</g>
					<g id="g80_1_" transform="translate(189 319)">
						<path id="path82_1_" d="m-70.8 328c0 5.4-3.1 9.2-7.2 9.2-4.2 0-7.2-3.8-7.2-9.2s3-9.2 7.2-9.2c4.1 0 7.2 4 7.2 9m-16.9 0c0 7.1 4.5 11.2 9.6 11.2 5.2 0 9.6-4.1 9.6-11.2s-4.5-11.2-9.6-11.2-9.6 4-9.6 11" class="st1"/>
					</g>
					<path id="path84_1_" d="m127 658h2.3v-21.3h-2.3v21zm-1 6c0 1.2 0.9 1.9 2 1.9 1 0 2-0.7 2-1.9 0-1.1-0.9-1.8-2-1.8-1 1-2 1-2 2" class="st1"/>
					<g id="g86_1_" transform="translate(222 313)">
						<path id="path88_1_" d="m-70.8 328v12.3c-2.2 1.9-4 2.6-6 2.6-4.1 0-7.2-4-7.2-9.2 0-5.5 2.4-9.1 6.8-9.1 2.2 0 4.2 1 6.4 3m-15.7 6c0 6.9 4.4 11.2 9.4 11.2 2.6 0 4.3-1 6.4-2.6l-0.2 3.8v8.7h2.3v-31.8h-1.9l-0.3 2.7h-0.1c-1.7-1.7-4.1-3.2-6.8-3.2-5.3 0-8.8 4-8.8 11" class="st1"/>
					</g>
					<g id="g90_1_" transform="translate(254 313)">
						<path id="path92_1_" d="m-70.8 328v6.9c-8.4-1-11.3-2.9-11.3-6.2 0-2.9 2-4 4.4-4 2.3 0 4.3 1 6.9 3m-13.6 1c0 4.7 4.2 7 13.6 8 0.1 3.2-0.8 6.4-4.9 6.4-2.8 0-5.2-1.3-6.7-2.4l-1 1.7c1.6 1.1 4.6 2.8 8.1 2.8 5.1 0 6.9-3.6 6.9-8.4v-13.5h-2l-0.2 2.7h-0.1c-2.2-1.8-4.7-3.2-7.4-3.2-3.6-1-6.3 1-6.3 5" class="st1"/>
					</g>
					<g id="g94_1_" transform="translate(263 330)">
						<path id="path96_1_" d="m-70.8 328h1.9l0.3-3.2h0.1c2.2 2.1 4.4 3.8 7.3 3.8 4.4 0 6.5-2.8 6.5-8.2v-13.6h-2.3v13.3c0 4.4-1.4 6.5-4.7 6.5-2.5 0-4.2-1.3-6.7-3.8v-16h-2.3l-0.1 22z" class="st1"/>
					</g>
					<g id="g98_1_" transform="translate(301 313)">
						<path id="path100_1_" d="m-70.8 328v12.3c-2.2 1.9-4 2.6-6 2.6-4.1 0-7.2-4-7.2-9.2 0-5.5 2.4-9.1 6.8-9.1 2.2 0 4.2 1 6.4 3m-15.7 6c0 6.9 4.4 11.2 9.4 11.2 2.6 0 4.3-1 6.4-2.6l-0.2 3.8v8.7h2.3v-31.8h-1.9l-0.3 2.7h-0.1c-1.7-1.7-4.1-3.2-6.8-3.2-5.3 0-8.8 4-8.8 11" class="st1"/>
					</g>
					<g id="g102_1_" transform="translate(333 320)">
						<path id="path104_1_" d="m-70.8 328l-1.8 5.3c-1.2 3.4-2.2 6.5-3.2 10h-0.2c-1-3.5-2-6.6-3.2-10l-1.8-5.3h10.2zm0.6-2h-11.4l-3.3-9.8h-2.4l10.2 29.2h2.5l10.2-29.2h-2.6s-3.2 10-3.2 10z" class="st1"/>
					</g>
					<g id="g106_1_" transform="translate(359 319)">
						<path id="path108_1_" d="m-70.8 328c0 5.1-1.8 8.8-6.5 8.8-2 0-4.2-1.2-6.6-3.4v-12.3c2.3-1.9 4.5-2.6 6-2.6 4.1 0 7.1 3 7.1 9m-15.5 10h1.9l0.3-2.6h0.1c2.1 1.6 4.5 3.2 7.1 3.2 5.7 0 8.6-4.3 8.6-10.9 0-7.3-4.4-11.5-9.4-11.5-2 0-4.1 0.9-6.3 2.6v-3.9-7.7h-2.3v31z" class="st1"/>
					</g>
					<g id="g110_1_" transform="translate(383 319)">
						<path id="path112_1_" d="m-70.8 328c0 5.1-1.8 8.8-6.5 8.8-2 0-4.2-1.2-6.6-3.4v-12.3c2.3-1.9 4.5-2.6 6-2.6 4.1 0 7.1 3 7.1 9m-15.5 10h1.9l0.3-2.6h0.1c2.1 1.6 4.5 3.2 7.1 3.2 5.7 0 8.6-4.3 8.6-10.9 0-7.3-4.4-11.5-9.4-11.5-2 0-4.1 0.9-6.3 2.6v-3.9-7.7h-2.3v31z" class="st1"/>
					</g>
					<g id="g114_1_" transform="translate(392 311)">
						<path id="path116_1_" d="m-70.8 328v28.6h2.3v-28.9c0-1 0.4-1.4 1-1.4 0.2 0 0.3 0 0.8 0.1l0.4-1.8c-0.4-0.1-0.8-0.2-1.6-0.2-2-1-2.9 1-2.9 3" class="st1"/>
					</g>
					<path id="path118_1_" d="m332 658h2.3v-21.3h-2.3v21zm-1 6c0 1.2 0.9 1.9 2 1.9 1 0 2-0.7 2-1.9 0-1.1-0.9-1.8-2-1.8-1 1-2 1-2 2" class="st1"/>
					<g id="g120_1_" transform="translate(411 319)">
						<path id="path122_1_" d="m-70.8 328c0 7.1 4.6 11.2 9.9 11.2 2.8 0 4.8-1.3 6.2-2.6l-1.3-1.6c-1.3 1.2-2.9 2.2-4.9 2.2-4.2 0-7.5-3.8-7.5-9.2s3-9.2 7.4-9.2c2.2 0 4.1 1.1 5.6 2.4l1.1-1.6c-1.8-1.6-4.1-2.8-6.8-2.8-5.5 2-9.7 6-9.7 13" class="st1"/>
					</g>
					<g id="g124_1_" transform="translate(445 313)">
						<path id="path126_1_" d="m-70.8 328v6.9c-8.4-1-11.3-2.9-11.3-6.2 0-2.9 2-4 4.4-4 2.3 0 4.3 1 6.9 3m-13.6 1c0 4.7 4.2 7 13.6 8 0.1 3.2-0.8 6.4-4.9 6.4-2.8 0-5.2-1.3-6.7-2.4l-1 1.7c1.6 1.1 4.6 2.8 8.1 2.8 5.1 0 6.9-3.6 6.9-8.4v-13.5h-2l-0.2 2.7h-0.1c-2.2-1.8-4.7-3.2-7.4-3.2-3.6-1-6.3 1-6.3 5" class="st1"/>
					</g>
					<g id="g128_1_" transform="translate(454 314)">
						<path id="path130_1_" d="m-70.8 328v13.3h-3.3v1.8l3.4 0.2 0.3 6.2h2v-6.2h6.1v-2h-6.1v-13c0-2.7 0.7-4.4 3.6-4.4 0.8 0 1.8 0.3 2.6 0.6l0.6-1.8c-1.2-0.4-2.6-0.8-3.6-0.8-4.4 0-5.6 2-5.6 6" class="st1"/>
					</g>
					<path id="path132_1_" d="m397 658h2.3v-21.3h-2v21zm-1 6c0 1.2 0.9 1.9 2 1.9 1 0 2-0.7 2-1.9 0-1.1-0.9-1.8-2-1.8-1 1-2 1-2 2" class="st1"/>
					<g id="g134_1_" transform="translate(493 319)">
						<path id="path136_1_" d="m-70.8 328c0 5.4-3.1 9.2-7.2 9.2-4.2 0-7.2-3.8-7.2-9.2s3-9.2 7.2-9.2c4.1 0 7.2 4 7.2 9m-16.9 0c0 7.1 4.5 11.2 9.6 11.2 5.2 0 9.6-4.1 9.6-11.2s-4.5-11.2-9.6-11.2-9.6 4-9.6 11" class="st1"/>
					</g>
					<g id="g138_1_" transform="translate(502 330)">
						<path id="path140_1_" d="m-70.8 328h1.9l0.3-3.2h0.1c2.2 2.1 4.4 3.8 7.3 3.8 4.4 0 6.5-2.8 6.5-8.2v-13.6h-2.3v13.3c0 4.4-1.4 6.5-4.7 6.5-2.5 0-4.2-1.3-6.7-3.8v-16h-2.3v22z" class="st1"/>
					</g>
				</g>
		</g>
	</g>
</svg>
