<?xml version="1.0" encoding="utf-8"?>
<!-- Generator: Adobe Illustrator 20.0.0, SVG Export Plug-In . SVG Version: 6.00 Build 0)  -->
<svg version="1.1" id="레이어_1" xmlns="http://www.w3.org/2000/svg" xmlns:xlink="http://www.w3.org/1999/xlink" x="0px"
	 y="0px" viewBox="0 0 572 318" style="enable-background:new 0 0 572 318;" xml:space="preserve">
<style type="text/css">
	.st0{fill:#F8A000;}
	.st1{fill:#FFBC00;}
</style>
<g>
	<g>
		<path class="st0" d="M74,220v35c0,0,4.8,18,20,18s21-18,21-18v-35H74z"/>
		<path class="st0" d="M167,220v35c0,0,4.8,18,20,18s21-18,21-18v-35H167z"/>
		<path class="st0" d="M114,206H74l0-97.7c0,0,9.5-56.1,66.8-56.1c57.3,0,66.1,52.3,66.1,52.3l1,101.6h-42v-40l-23-0.3
			c0,0-8.1-2.5-8.1-10.8s8.3-11,8.3-11l23.8-0.3c0,0-5-31.8-26.5-31.8S114,143.5,114,143.5V206z"/>
	</g>
	<path class="st0" d="M73,54l11,11c0,0,2.8,2.7,7-1.1s1-8,1-8L82,46c0,0-2.3-4.7-8,0S73,54,73,54z"/>
	<path class="st0" d="M199.1,45.8L188,56.7c0,0-2.7,2.7,1,7c3.7,4.2,8,1.1,8,1.1l10.1-9.9c0,0,4.7-2.2,0-8S199.1,45.8,199.1,45.8z"
		/>
</g>
<g>
	<g>
		<path class="st0" d="M360,220v35c0,0,4.8,18,20,18s21-18,21-18v-35H360z"/>
		<path class="st0" d="M453,220v35c0,0,4.8,18,20,18s21-18,21-18v-35H453z"/>
		<path class="st0" d="M400,206h-40l0-97.7c0,0,9.5-56.1,66.8-56.1c57.3,0,66.1,52.3,66.1,52.3l1,101.6h-42v-40l-23-0.3
			c0,0-8.1-2.5-8.1-10.8s8.3-11,8.3-11l23.8-0.3c0,0-5-31.8-26.5-31.8S400,143.5,400,143.5V206z"/>
	</g>
	<path class="st0" d="M357,84.1l-9,20l-23.9-10c0,0-5.1-5.4-1.1-14s13.8-5.1,13.8-5.1L357,84.1z"/>
	<path class="st0" d="M499.4,126.2l1.4-21.9l25.9,1c0,0,6.6,3.3,5.9,12.7c-0.7,9.5-11.2,9.6-11.2,9.6L499.4,126.2z"/>
</g>
<g>
	<path class="st1" d="M237,222v40c0,0,4.7,8.9,12.5,8.9c7.8,0,12.5-9,12.5-9V222H237z"/>
	<path class="st1" d="M298,222v40c0,0,4.7,8.9,12.5,8.9s12.5-9,12.5-9V222H298z"/>
</g>
<g>
	<path class="st1" d="M237,211.5v-35.4c0,0,5.5-9.1,12.3-9.1s10.4,6.9,10.4,6.9s12.8-4.6,21.2-4.6c8.4,0,42.1,0.7,42.1,42.7h-23.9
		c0,0-2.1-19.6-19.1-19.6c-17,0-17.7,19.6-17.7,19.6L237,211.5z"/>
</g>
<polyline class="st1" points="262.4,211.7 237,212 237,211 262.4,212 "/>
</svg>
