<?xml version="1.0" encoding="utf-8"?>
<!-- Generator: Adobe Illustrator 20.0.0, SVG Export Plug-In . SVG Version: 6.00 Build 0)  -->
<svg version="1.1" id="레이어_1" xmlns="http://www.w3.org/2000/svg" xmlns:xlink="http://www.w3.org/1999/xlink" x="0px"
	 y="0px" viewBox="0 0 575 270" style="enable-background:new 0 0 575 270;" xml:space="preserve">
<style type="text/css">
	.st0{fill:#332D2B;stroke:#332D2B;stroke-miterlimit:10;}
	.st1{fill:#332D2B;}
	.st2{fill:none;stroke:#332D2B;stroke-miterlimit:10;}
	.st3{clip-path:url(#SVGID_2_);}
</style>
<g>
	<g id="g10_1_" transform="matrix(1.25,0,0,-1.25,0,1052.3625)">
		<path id="path12_1_" class="st0" d="M450,830.3H2.2V841H450V830.3L450,830.3z"/>
		<path id="path14_1_" class="st0" d="M450,685.3H6.2V696H450V685.3z"/>
		<path id="path16_1_" class="st0" d="M2.2,841h9V685.3h-9V841z"/>
		<path id="path18_1_" class="st0" d="M450,841h9V685.3h-9V841z"/>
		<g id="g20_1_" transform="translate(148.4031,357.8095)">
			<path id="path22_1_" class="st1" d="M-70.8,328.1l-14.3,5.2l53.2,147.2l14.3-5.2L-70.8,328.1z"/>
		</g>
		<g id="g24_1_" transform="translate(148.4031,357.8095)">
			<path id="path26_1_" class="st2" d="M-70.8,328.1l-14.3,5.2l53.2,147.2l14.3-5.2L-70.8,328.1z"/>
		</g>
		<g id="g28_1_" transform="translate(249.2123,362.636)">
			<path id="path30_1_" class="st1" d="M-70.8,328.1l-14.4-5L-136.5,471l14.4,5L-70.8,328.1z"/>
		</g>
		<g id="g32_1_" transform="translate(249.2123,362.636)">
			<path id="path34_1_" class="st2" d="M-70.8,328.1l-14.4-5L-136.5,471l14.4,5L-70.8,328.1z"/>
		</g>
		<g id="g36_1_" transform="translate(368.2641,357.7217)">
			<path id="path38_1_" class="st1" d="M-70.8,328.1l-14.3,5.2l53.2,147.2l14.3-5.2L-70.8,328.1z"/>
		</g>
		<g id="g40_1_" transform="translate(368.2641,357.7217)">
			<path id="path42_1_" class="st2" d="M-70.8,328.1l-14.3,5.2l53.2,147.2l14.3-5.2L-70.8,328.1z"/>
		</g>
		<g id="g44_1_" transform="translate(469.0733,362.5482)">
			<path id="path46_1_" class="st1" d="M-70.8,328.1l-14.4-5L-136.5,471l14.4,5L-70.8,328.1z"/>
		</g>
		<g id="g48_1_" transform="translate(469.0733,362.5482)">
			<path id="path50_1_" class="st2" d="M-70.8,328.1l-14.4-5L-136.5,471l14.4,5L-70.8,328.1z"/>
		</g>
		<g id="g52_1_">
			<g>
				<defs>
					<rect id="SVGID_1_" x="-145.3" y="222.9" width="744.1" height="1052.4"/>
				</defs>
				<clipPath id="SVGID_2_">
					<use xlink:href="#SVGID_1_"  style="overflow:visible;"/>
				</clipPath>
				<g id="g54_1_" class="st3">
					<g id="g60_1_" transform="translate(267.4448,447.87)">
						<path id="path62_1_" class="st1" d="M-70.8,328.1h14.1l1.4-11.4h0.5c7.6,7.3,16,13.5,27.3,13.5c17.5,0,25.3-11.7,25.3-32.7
							v-51.9h-17.2v49.8c0,14.3-4.2,19.9-13.9,19.9c-7.6,0-12.9-3.9-20.3-11.2v-58.5l-17.1,0V328.1z"/>
					</g>
					<g id="g64_1_" transform="translate(101.7319,319.9076)">
						<path id="path66_1_" class="st1" d="M-70.8,328.1l-1.8,5.3c-1.2,3.4-2.2,6.5-3.2,10H-76c-1-3.5-2-6.6-3.2-10l-1.8-5.3H-70.8z
							 M-70.2,326.2h-11.4l-3.3-9.8h-2.4l10.2,29.2h2.5l10.2-29.2H-67C-67,316.4-70.2,326.2-70.2,326.2z"/>
					</g>
					<g id="g68_1_" transform="translate(112.4536,329.5062)">
						<path id="path70_1_" class="st1" d="M-70.8,328.1h1.9l0.3-3.2h0.1c2.2,2.1,4.4,3.8,7.3,3.8c4.4,0,6.5-2.8,6.5-8.2v-13.6h-2.3
							v13.3c0,4.4-1.4,6.5-4.7,6.5c-2.5,0-4.2-1.3-6.7-3.8v-16h-2.3V328.1z"/>
					</g>
					<g id="g72_1_" transform="translate(150.0508,313.0687)">
						<path id="path74_1_" class="st1" d="M-70.8,328.1v12.3c-2.2,1.9-4,2.6-6,2.6c-4.1,0-7.2-4-7.2-9.2c0-5.5,2.4-9.1,6.8-9.1
							C-75,324.8-73,325.9-70.8,328.1 M-86.5,333.9c0,6.9,4.4,11.2,9.4,11.2c2.6,0,4.3-1,6.4-2.6l-0.2,3.8v8.7h2.3v-31.8h-1.9
							l-0.3,2.7h-0.1c-1.7-1.7-4.1-3.2-6.8-3.2C-83,322.7-86.5,326.7-86.5,333.9"/>
					</g>
					<g id="g76_1_" transform="translate(160.373,329.5062)">
						<path id="path78_1_" class="st1" d="M-70.8,328.1h1.9l0.3-4h0.1c1.4,2.7,3.6,4.5,6,4.5c0.8,0,1.5-0.1,2.2-0.5l-0.5-2.1
							c-0.7,0.3-1.1,0.4-2,0.4c-1.9,0-4.2-1.4-5.7-5.4v-14.3h-2.3V328.1z"/>
					</g>
					<g id="g80_1_" transform="translate(189.4106,318.8285)">
						<path id="path82_1_" class="st1" d="M-70.8,328.1c0,5.4-3.1,9.2-7.2,9.2c-4.2,0-7.2-3.8-7.2-9.2c0-5.4,3-9.2,7.2-9.2
							C-73.9,319-70.8,322.7-70.8,328.1 M-87.7,328.1c0,7.1,4.5,11.2,9.6,11.2c5.2,0,9.6-4.1,9.6-11.2c0-7.1-4.5-11.2-9.6-11.2
							C-83.2,317-87.7,321.1-87.7,328.1"/>
					</g>
					<path id="path84_1_" class="st1" d="M127.2,657.7h2.3v-21.3h-2.3V657.7z M126.5,664.5c0,1.2,0.9,1.9,2,1.9c1,0,2-0.7,2-1.9
						c0-1.1-0.9-1.8-2-1.8C127.3,662.7,126.5,663.4,126.5,664.5"/>
					<g id="g86_1_" transform="translate(222.21,313.0687)">
						<path id="path88_1_" class="st1" d="M-70.8,328.1v12.3c-2.2,1.9-4,2.6-6,2.6c-4.1,0-7.2-4-7.2-9.2c0-5.5,2.4-9.1,6.8-9.1
							C-75,324.8-73,325.9-70.8,328.1 M-86.5,333.9c0,6.9,4.4,11.2,9.4,11.2c2.6,0,4.3-1,6.4-2.6l-0.2,3.8v8.7h2.3v-31.8h-1.9
							l-0.3,2.7h-0.1c-1.7-1.7-4.1-3.2-6.8-3.2C-83,322.7-86.5,326.7-86.5,333.9"/>
					</g>
					<g id="g90_1_" transform="translate(253.5293,312.9486)">
						<path id="path92_1_" class="st1" d="M-70.8,328.1v6.9c-8.4-1-11.3-2.9-11.3-6.2c0-2.9,2-4,4.4-4
							C-75.4,324.8-73.4,325.9-70.8,328.1 M-84.4,328.7c0,4.7,4.2,7,13.6,8c0.1,3.2-0.8,6.4-4.9,6.4c-2.8,0-5.2-1.3-6.7-2.4l-1,1.7
							c1.6,1.1,4.6,2.8,8.1,2.8c5.1,0,6.9-3.6,6.9-8.4v-13.5h-2l-0.2,2.7h-0.1c-2.2-1.8-4.7-3.2-7.4-3.2
							C-81.7,322.9-84.4,324.8-84.4,328.7"/>
					</g>
					<g id="g94_1_" transform="translate(263.2915,329.5062)">
						<path id="path96_1_" class="st1" d="M-70.8,328.1h1.9l0.3-3.2h0.1c2.2,2.1,4.4,3.8,7.3,3.8c4.4,0,6.5-2.8,6.5-8.2v-13.6h-2.3
							v13.3c0,4.4-1.4,6.5-4.7,6.5c-2.5,0-4.2-1.3-6.7-3.8v-16h-2.3L-70.8,328.1z"/>
					</g>
					<g id="g98_1_" transform="translate(300.8887,313.0687)">
						<path id="path100_1_" class="st1" d="M-70.8,328.1v12.3c-2.2,1.9-4,2.6-6,2.6c-4.1,0-7.2-4-7.2-9.2c0-5.5,2.4-9.1,6.8-9.1
							C-75,324.8-73,325.9-70.8,328.1 M-86.5,333.9c0,6.9,4.4,11.2,9.4,11.2c2.6,0,4.3-1,6.4-2.6l-0.2,3.8v8.7h2.3v-31.8h-1.9
							l-0.3,2.7h-0.1c-1.7-1.7-4.1-3.2-6.8-3.2C-83,322.7-86.5,326.7-86.5,333.9"/>
					</g>
					<g id="g102_1_" transform="translate(332.8477,319.9076)">
						<path id="path104_1_" class="st1" d="M-70.8,328.1l-1.8,5.3c-1.2,3.4-2.2,6.5-3.2,10H-76c-1-3.5-2-6.6-3.2-10l-1.8-5.3H-70.8z
							 M-70.2,326.2h-11.4l-3.3-9.8h-2.4l10.2,29.2h2.5l10.2-29.2H-67C-67,316.4-70.2,326.2-70.2,326.2z"/>
					</g>
					<g id="g106_1_" transform="translate(359.0469,319.1879)">
						<path id="path108_1_" class="st1" d="M-70.8,328.1c0,5.1-1.8,8.8-6.5,8.8c-2,0-4.2-1.2-6.6-3.4v-12.3c2.3-1.9,4.5-2.6,6-2.6
							C-73.8,318.7-70.8,322.4-70.8,328.1 M-86.3,338.5h1.9l0.3-2.6h0.1c2.1,1.6,4.5,3.2,7.1,3.2c5.7,0,8.6-4.3,8.6-10.9
							c0-7.3-4.4-11.5-9.4-11.5c-2,0-4.1,0.9-6.3,2.6l0-3.9v-7.7h-2.3C-86.3,307.6-86.3,338.5-86.3,338.5z"/>
					</g>
					<g id="g110_1_" transform="translate(383.2471,319.1879)">
						<path id="path112_1_" class="st1" d="M-70.8,328.1c0,5.1-1.8,8.8-6.5,8.8c-2,0-4.2-1.2-6.6-3.4v-12.3c2.3-1.9,4.5-2.6,6-2.6
							C-73.8,318.7-70.8,322.4-70.8,328.1 M-86.3,338.5h1.9l0.3-2.6h0.1c2.1,1.6,4.5,3.2,7.1,3.2c5.7,0,8.6-4.3,8.6-10.9
							c0-7.3-4.4-11.5-9.4-11.5c-2,0-4.1,0.9-6.3,2.6l0-3.9v-7.7h-2.3C-86.3,307.6-86.3,338.5-86.3,338.5z"/>
					</g>
					<g id="g114_1_" transform="translate(391.9697,311.349)">
						<path id="path116_1_" class="st1" d="M-70.8,328.1v28.6h2.3v-28.9c0-1,0.4-1.4,1-1.4c0.2,0,0.3,0,0.8,0.1l0.4-1.8
							c-0.4-0.1-0.8-0.2-1.6-0.2C-69.9,324.5-70.8,325.7-70.8,328.1"/>
					</g>
					<path id="path118_1_" class="st1" d="M331.8,657.7h2.3v-21.3h-2.3V657.7z M331,664.5c0,1.2,0.9,1.9,2,1.9c1,0,2-0.7,2-1.9
						c0-1.1-0.9-1.8-2-1.8C331.9,662.7,331,663.4,331,664.5"/>
					<g id="g120_1_" transform="translate(411.1689,318.8285)">
						<path id="path122_1_" class="st1" d="M-70.8,328.1c0,7.1,4.6,11.2,9.9,11.2c2.8,0,4.8-1.3,6.2-2.6l-1.3-1.6
							c-1.3,1.2-2.9,2.2-4.9,2.2c-4.2,0-7.5-3.8-7.5-9.2c0-5.4,3-9.2,7.4-9.2c2.2,0,4.1,1.1,5.6,2.4l1.1-1.6
							c-1.8-1.6-4.1-2.8-6.8-2.8C-66.6,317-70.8,321.1-70.8,328.1"/>
					</g>
					<g id="g124_1_" transform="translate(444.5674,312.9486)">
						<path id="path126_1_" class="st1" d="M-70.8,328.1v6.9c-8.4-1-11.3-2.9-11.3-6.2c0-2.9,2-4,4.4-4
							C-75.4,324.8-73.4,325.9-70.8,328.1 M-84.4,328.7c0,4.7,4.2,7,13.6,8c0.1,3.2-0.8,6.4-4.9,6.4c-2.8,0-5.2-1.3-6.7-2.4l-1,1.7
							c1.6,1.1,4.6,2.8,8.1,2.8c5.1,0,6.9-3.6,6.9-8.4v-13.5h-2l-0.2,2.7h-0.1c-2.2-1.8-4.7-3.2-7.4-3.2
							C-81.7,322.9-84.4,324.8-84.4,328.7"/>
					</g>
					<g id="g128_1_" transform="translate(454.3301,314.2689)">
						<path id="path130_1_" class="st1" d="M-70.8,328.1v13.3h-3.3v1.8l3.4,0.2l0.3,6.2h2v-6.2h6.1v-2h-6.1V328
							c0-2.7,0.7-4.4,3.6-4.4c0.8,0,1.8,0.3,2.6,0.6l0.6-1.8c-1.2-0.4-2.6-0.8-3.6-0.8C-69.6,321.5-70.8,324.2-70.8,328.1"/>
					</g>
					<path id="path132_1_" class="st1" d="M397,657.7h2.3v-21.3H397V657.7z M396.3,664.5c0,1.2,0.9,1.9,2,1.9c1,0,2-0.7,2-1.9
						c0-1.1-0.9-1.8-2-1.8C397.2,662.7,396.3,663.4,396.3,664.5"/>
					<g id="g134_1_" transform="translate(493.2871,318.8285)">
						<path id="path136_1_" class="st1" d="M-70.8,328.1c0,5.4-3.1,9.2-7.2,9.2c-4.2,0-7.2-3.8-7.2-9.2c0-5.4,3-9.2,7.2-9.2
							C-73.9,319-70.8,322.7-70.8,328.1 M-87.7,328.1c0,7.1,4.5,11.2,9.6,11.2c5.2,0,9.6-4.1,9.6-11.2c0-7.1-4.5-11.2-9.6-11.2
							C-83.2,317-87.7,321.1-87.7,328.1"/>
					</g>
					<g id="g138_1_" transform="translate(501.9287,329.5062)">
						<path id="path140_1_" class="st1" d="M-70.8,328.1h1.9l0.3-3.2h0.1c2.2,2.1,4.4,3.8,7.3,3.8c4.4,0,6.5-2.8,6.5-8.2v-13.6h-2.3
							v13.3c0,4.4-1.4,6.5-4.7,6.5c-2.5,0-4.2-1.3-6.7-3.8v-16h-2.3V328.1z"/>
					</g>
				</g>
			</g>
		</g>
	</g>
</g>
</svg>
