<?xml version="1.0" encoding="UTF-8" standalone="no"?>
<svg style="enable-background:new 0 0 572 318" xmlns="http://www.w3.org/2000/svg" xml:space="preserve" viewBox="0 0 572 318" version="1.1" y="0px" x="0px" xmlns:xlink="http://www.w3.org/1999/xlink">
<style type="text/css">
	.st0{fill:#F8A000;}
	.st1{fill:#FFBC00;}
</style>
		<path class="st0" d="m74 220v35s4.8 18 20 18 21-18 21-18v-35h-41z"/>
		<path class="st0" d="m167 220v35s4.8 18 20 18 21-18 21-18v-35h-41z"/>
		<path class="st0" d="m114 206h-40v-97.7s9.5-56.1 66.8-56.1 66.1 52.3 66.1 52.3l1 102h-42v-40l-23-0.3s-8.1-2.5-8.1-10.8 8.3-11 8.3-11l23.8-0.3s-5-31.8-26.5-31.8-26 32-26 32v62z"/>
	<path class="st0" d="m73 54l11 11s2.8 2.7 7-1.1 1-8 1-8l-10-9.9s-2.3-4.7-8 0-1 8-1 8z"/>
	<path class="st0" d="m199 45.8l-11 10.9s-2.7 2.7 1 7c3.7 4.2 8 1.1 8 1.1l10.1-9.9s4.7-2.2 0-8-8-1.1-8-1.1z"/>
		<path class="st0" d="m360 220v35s4.8 18 20 18 21-18 21-18v-35h-41z"/>
		<path class="st0" d="m453 220v35s4.8 18 20 18 21-18 21-18v-35h-41z"/>
		<path class="st0" d="m400 206h-40v-97.7s9.5-56.1 66.8-56.1 66.1 52.3 66.1 52.3l1 102h-42v-40l-23-0.3s-8.1-2.5-8.1-10.8 8.3-11 8.3-11l23.8-0.3s-5-31.8-26.5-31.8-26 32-26 32v62z"/>
	<path class="st0" d="m357 84.1l-9 20-23.9-10s-5.1-5.4-1.1-14 13.8-5.1 13.8-5.1l20 9.2z"/>
	<path class="st0" d="m499 126l1.4-21.9 25.9 1s6.6 3.3 5.9 12.7c-0.7 9.5-11.2 9.6-11.2 9.6l-22-2z"/>
	<path class="st1" d="m237 222v40s4.7 8.9 12.5 8.9 12.5-9 12.5-9v-40h-25z"/>
	<path class="st1" d="m298 222v40s4.7 8.9 12.5 8.9 12.5-9 12.5-9v-40h-24z"/>
	<path class="st1" d="m237 212v-35.4s5.5-9.1 12.3-9.1 10.4 6.9 10.4 6.9 12.8-4.6 21.2-4.6c8.4 0 42.1 0.7 42.1 42.7h-23.9s-2.1-19.6-19.1-19.6-17.7 19.6-17.7 19.6l-24-1z"/>
<polyline points="262 212 237 212 237 211 262 212" class="st1"/>
</svg>
