<?xml version="1.0" encoding="UTF-8" standalone="no"?>
<svg
   xmlns:dc="http://purl.org/dc/elements/1.1/"
   xmlns:cc="http://creativecommons.org/ns#"
   xmlns:rdf="http://www.w3.org/1999/02/22-rdf-syntax-ns#"
   xmlns:svg="http://www.w3.org/2000/svg"
   xmlns="http://www.w3.org/2000/svg"
   viewBox="0 0 744.09998 1052.3625"
   height="1052.3625"
   width="744.09998"
   xml:space="preserve"
   version="1.1"
   id="svg2"><metadata
     id="metadata8"><rdf:RDF><cc:Work
         rdf:about=""><dc:format>image/svg+xml</dc:format><dc:type
           rdf:resource="http://purl.org/dc/dcmitype/StillImage" /></cc:Work></rdf:RDF></metadata><defs
     id="defs6"><clipPath
       id="clipPath56"
       clipPathUnits="userSpaceOnUse"><path
         id="path58"
         d="m 0,841.89 595.28,0 L 595.28,0 0,0 0,841.89 Z" /></clipPath></defs><g
     transform="matrix(1.25,0,0,-1.25,0,1052.3625)"
     id="g10"><path
       id="path12"
       style="fill:#332d2b;fill-opacity:1;fill-rule:nonzero;stroke:#332d2b;stroke-width:1;stroke-linecap:butt;stroke-linejoin:miter;stroke-miterlimit:10;stroke-dasharray:none;stroke-opacity:1"
       d="m 520.834,502.145 -447.82,0 0,10.667 447.82,0 0,-10.667 z" /><path
       id="path14"
       style="fill:#332d2b;fill-opacity:1;fill-rule:nonzero;stroke:#332d2b;stroke-width:1;stroke-linecap:butt;stroke-linejoin:miter;stroke-miterlimit:10;stroke-dasharray:none;stroke-opacity:1"
       d="m 520.834,357.145 -443.82,0 0,10.667 443.82,0 0,-10.667 z" /><path
       id="path16"
       style="fill:#332d2b;fill-opacity:1;fill-rule:nonzero;stroke:#332d2b;stroke-width:1;stroke-linecap:butt;stroke-linejoin:miter;stroke-miterlimit:10;stroke-dasharray:none;stroke-opacity:1"
       d="m 73.014,512.812 9.027,0 0,-155.667 -9.027,0 0,155.667 z" /><path
       id="path18"
       style="fill:#332d2b;fill-opacity:1;fill-rule:nonzero;stroke:#332d2b;stroke-width:1;stroke-linecap:butt;stroke-linejoin:miter;stroke-miterlimit:10;stroke-dasharray:none;stroke-opacity:1"
       d="m 520.834,512.812 9.027,0 0,-155.667 -9.027,0 0,155.667 z" /><g
       transform="translate(148.4031,357.8095)"
       id="g20"><path
         id="path22"
         style="fill:#332d2b;fill-opacity:1;fill-rule:nonzero;stroke:none"
         d="M 0,0 -14.291,5.165 38.903,152.339 53.194,147.173 0,0 Z" /></g><g
       transform="translate(148.4031,357.8095)"
       id="g24"><path
         id="path26"
         style="fill:none;stroke:#332d2b;stroke-width:1;stroke-linecap:butt;stroke-linejoin:miter;stroke-miterlimit:10;stroke-dasharray:none;stroke-opacity:1"
         d="M 0,0 -14.291,5.165 38.903,152.339 53.194,147.173 0,0 Z" /></g><g
       transform="translate(249.2123,362.636)"
       id="g28"><path
         id="path30"
         style="fill:#332d2b;fill-opacity:1;fill-rule:nonzero;stroke:none"
         d="M 0,0 -14.356,-4.982 -65.66,142.861 -51.304,147.843 0,0 Z" /></g><g
       transform="translate(249.2123,362.636)"
       id="g32"><path
         id="path34"
         style="fill:none;stroke:#332d2b;stroke-width:1;stroke-linecap:butt;stroke-linejoin:miter;stroke-miterlimit:10;stroke-dasharray:none;stroke-opacity:1"
         d="M 0,0 -14.356,-4.982 -65.66,142.861 -51.304,147.843 0,0 Z" /></g><g
       transform="translate(368.2641,357.7217)"
       id="g36"><path
         id="path38"
         style="fill:#332d2b;fill-opacity:1;fill-rule:nonzero;stroke:none"
         d="M 0,0 -14.291,5.165 38.903,152.339 53.194,147.173 0,0 Z" /></g><g
       transform="translate(368.2641,357.7217)"
       id="g40"><path
         id="path42"
         style="fill:none;stroke:#332d2b;stroke-width:1;stroke-linecap:butt;stroke-linejoin:miter;stroke-miterlimit:10;stroke-dasharray:none;stroke-opacity:1"
         d="M 0,0 -14.291,5.165 38.903,152.339 53.194,147.173 0,0 Z" /></g><g
       transform="translate(469.0733,362.5482)"
       id="g44"><path
         id="path46"
         style="fill:#332d2b;fill-opacity:1;fill-rule:nonzero;stroke:none"
         d="M 0,0 -14.356,-4.982 -65.66,142.861 -51.304,147.843 0,0 Z" /></g><g
       transform="translate(469.0733,362.5482)"
       id="g48"><path
         id="path50"
         style="fill:none;stroke:#332d2b;stroke-width:1;stroke-linecap:butt;stroke-linejoin:miter;stroke-miterlimit:10;stroke-dasharray:none;stroke-opacity:1"
         d="M 0,0 -14.356,-4.982 -65.66,142.861 -51.304,147.843 0,0 Z" /></g><g
       id="g52"><g
         clip-path="url(#clipPath56)"
         id="g54"><g
           transform="translate(267.4448,447.87)"
           id="g60"><path
             id="path62"
             style="fill:#332d2b;fill-opacity:1;fill-rule:nonzero;stroke:none"
             d="m 0,0 14.099,0 1.351,-11.399 0.45,0 C 23.549,-4.05 31.949,2.1 43.199,2.1 60.748,2.1 68.547,-9.6 68.547,-30.598 l 0,-51.899 -17.249,0 0,49.798 c 0,14.25 -4.2,19.949 -13.949,19.949 -7.65,0 -12.9,-3.899 -20.25,-11.249 l 0,-58.498 L 0,-82.497 0,0 Z" /></g><g
           transform="translate(101.7319,319.9076)"
           id="g64"><path
             id="path66"
             style="fill:#332d2b;fill-opacity:1;fill-rule:nonzero;stroke:none"
             d="m 0,0 -1.76,5.279 c -1.199,3.4 -2.159,6.479 -3.199,9.998 l -0.16,0 c -1,-3.519 -2,-6.598 -3.16,-9.998 L -10.079,0 0,0 Z m 0.64,-1.919 -11.358,0 -3.32,-9.799 -2.399,0 10.198,29.155 2.48,0 10.198,-29.155 -2.56,0 -3.239,9.799 z" /></g><g
           transform="translate(112.4536,329.5062)"
           id="g68"><path
             id="path70"
             style="fill:#332d2b;fill-opacity:1;fill-rule:nonzero;stroke:none"
             d="m 0,0 1.919,0 0.28,-3.239 0.08,0 c 2.16,2.119 4.36,3.799 7.279,3.799 4.44,0 6.479,-2.759 6.479,-8.239 l 0,-13.637 -2.32,0 0,13.317 c 0,4.439 -1.399,6.479 -4.679,6.479 -2.479,0 -4.239,-1.28 -6.719,-3.839 l 0,-15.957 -2.319,0 L 0,0 Z" /></g><g
           transform="translate(150.0508,313.0687)"
           id="g72"><path
             id="path74"
             style="fill:#332d2b;fill-opacity:1;fill-rule:nonzero;stroke:none"
             d="m 0,0 0,12.318 c -2.16,1.92 -3.959,2.64 -5.959,2.64 -4.079,0 -7.199,-3.96 -7.199,-9.198 0,-5.52 2.44,-9.119 6.759,-9.119 2.28,0 4.279,1.16 6.399,3.359 m -15.637,5.76 c 0,6.878 4.399,11.237 9.438,11.237 2.56,0 4.28,-0.96 6.359,-2.6 l -0.16,3.84 0,8.679 2.32,0 0,-31.795 -1.92,0 -0.28,2.68 -0.08,0 c -1.72,-1.72 -4.079,-3.199 -6.839,-3.199 -5.359,0 -8.838,3.999 -8.838,11.158" /></g><g
           transform="translate(160.373,329.5062)"
           id="g76"><path
             id="path78"
             style="fill:#332d2b;fill-opacity:1;fill-rule:nonzero;stroke:none"
             d="m 0,0 1.919,0 0.28,-3.959 0.08,0 c 1.44,2.68 3.56,4.519 6.039,4.519 0.84,0 1.48,-0.12 2.16,-0.48 L 9.998,-2 c -0.72,0.28 -1.12,0.36 -1.959,0.36 -1.88,0 -4.16,-1.399 -5.72,-5.359 l 0,-14.317 -2.319,0 L 0,0 Z" /></g><g
           transform="translate(189.4106,318.8285)"
           id="g80"><path
             id="path82"
             style="fill:#332d2b;fill-opacity:1;fill-rule:nonzero;stroke:none"
             d="m 0,0 c 0,5.438 -3.08,9.198 -7.239,9.198 -4.159,0 -7.199,-3.76 -7.199,-9.198 0,-5.439 3.04,-9.159 7.199,-9.159 C -3.08,-9.159 0,-5.439 0,0 m -16.877,0 c 0,7.118 4.479,11.237 9.638,11.237 C -2.08,11.237 2.4,7.118 2.4,0 c 0,-7.079 -4.48,-11.158 -9.639,-11.158 -5.159,0 -9.638,4.079 -9.638,11.158" /></g><path
           id="path84"
           style="fill:#332d2b;fill-opacity:1;fill-rule:nonzero;stroke:none"
           d="m 198.053,329.506 2.319,0 0,-21.316 -2.319,0 0,21.316 z m -0.76,6.839 c 0,1.2 0.88,1.92 1.96,1.92 1.039,0 1.959,-0.72 1.959,-1.92 0,-1.08 -0.92,-1.84 -1.959,-1.84 -1.08,0 -1.96,0.76 -1.96,1.84" /><g
           transform="translate(222.21,313.0687)"
           id="g86"><path
             id="path88"
             style="fill:#332d2b;fill-opacity:1;fill-rule:nonzero;stroke:none"
             d="m 0,0 0,12.318 c -2.16,1.92 -3.959,2.64 -5.959,2.64 -4.079,0 -7.199,-3.96 -7.199,-9.198 0,-5.52 2.44,-9.119 6.759,-9.119 2.28,0 4.279,1.16 6.399,3.359 m -15.637,5.76 c 0,6.878 4.399,11.237 9.438,11.237 2.56,0 4.28,-0.96 6.359,-2.6 l -0.16,3.84 0,8.679 2.32,0 0,-31.795 -1.92,0 -0.28,2.68 -0.08,0 c -1.72,-1.72 -4.079,-3.199 -6.839,-3.199 -5.359,0 -8.838,3.999 -8.838,11.158" /></g><g
           transform="translate(253.5293,312.9486)"
           id="g90"><path
             id="path92"
             style="fill:#332d2b;fill-opacity:1;fill-rule:nonzero;stroke:none"
             d="M 0,0 0,6.919 C -8.398,5.959 -11.278,4 -11.278,0.721 c 0,-2.92 2,-4.04 4.359,-4.04 2.36,0 4.399,1.12 6.919,3.319 m -13.598,0.601 c 0,4.718 4.2,6.959 13.598,8.038 0.08,3.16 -0.84,6.439 -4.879,6.439 -2.8,0 -5.239,-1.32 -6.719,-2.439 l -1.04,1.679 c 1.64,1.12 4.599,2.799 8.079,2.799 5.079,0 6.879,-3.638 6.879,-8.358 l 0,-13.518 -1.96,0 -0.24,2.72 -0.08,0 c -2.16,-1.76 -4.719,-3.239 -7.438,-3.239 -3.44,0 -6.2,1.919 -6.2,5.879" /></g><g
           transform="translate(263.2915,329.5062)"
           id="g94"><path
             id="path96"
             style="fill:#332d2b;fill-opacity:1;fill-rule:nonzero;stroke:none"
             d="m 0,0 1.919,0 0.28,-3.239 0.08,0 c 2.16,2.119 4.36,3.799 7.279,3.799 4.44,0 6.479,-2.759 6.479,-8.239 l 0,-13.637 -2.32,0 0,13.317 c 0,4.439 -1.399,6.479 -4.679,6.479 -2.479,0 -4.239,-1.28 -6.719,-3.839 l 0,-15.957 -2.319,0 L 0,0 Z" /></g><g
           transform="translate(300.8887,313.0687)"
           id="g98"><path
             id="path100"
             style="fill:#332d2b;fill-opacity:1;fill-rule:nonzero;stroke:none"
             d="m 0,0 0,12.318 c -2.16,1.92 -3.959,2.64 -5.959,2.64 -4.079,0 -7.199,-3.96 -7.199,-9.198 0,-5.52 2.44,-9.119 6.759,-9.119 2.28,0 4.279,1.16 6.399,3.359 m -15.637,5.76 c 0,6.878 4.399,11.237 9.438,11.237 2.56,0 4.28,-0.96 6.359,-2.6 l -0.16,3.84 0,8.679 2.32,0 0,-31.795 -1.92,0 -0.28,2.68 -0.08,0 c -1.72,-1.72 -4.079,-3.199 -6.839,-3.199 -5.359,0 -8.838,3.999 -8.838,11.158" /></g><g
           transform="translate(332.8477,319.9076)"
           id="g102"><path
             id="path104"
             style="fill:#332d2b;fill-opacity:1;fill-rule:nonzero;stroke:none"
             d="m 0,0 -1.76,5.279 c -1.199,3.4 -2.159,6.479 -3.199,9.998 l -0.16,0 C -6.118,11.758 -7.118,8.679 -8.278,5.279 L -10.078,0 0,0 Z m 0.641,-1.919 -11.359,0 -3.319,-9.799 -2.4,0 10.199,29.155 2.479,0 10.198,-29.155 -2.559,0 -3.239,9.799 z" /></g><g
           transform="translate(359.0469,319.1879)"
           id="g106"><path
             id="path108"
             style="fill:#332d2b;fill-opacity:1;fill-rule:nonzero;stroke:none"
             d="m 0,0 c 0,5.119 -1.76,8.839 -6.519,8.839 -2.04,0 -4.159,-1.2 -6.638,-3.4 l 0,-12.318 c 2.279,-1.92 4.478,-2.6 6.039,-2.6 C -2.959,-9.479 0,-5.719 0,0 m -15.478,10.318 1.92,0 0.281,-2.599 0.08,0 c 2.079,1.599 4.518,3.159 7.118,3.159 5.68,0 8.558,-4.319 8.558,-10.878 0,-7.278 -4.399,-11.518 -9.398,-11.518 -1.999,0 -4.119,0.92 -6.278,2.6 l 0.04,-3.92 0,-7.679 -2.321,0 0,30.835 z" /></g><g
           transform="translate(383.2471,319.1879)"
           id="g110"><path
             id="path112"
             style="fill:#332d2b;fill-opacity:1;fill-rule:nonzero;stroke:none"
             d="m 0,0 c 0,5.119 -1.76,8.839 -6.519,8.839 -2.04,0 -4.159,-1.2 -6.638,-3.4 l 0,-12.318 c 2.279,-1.92 4.478,-2.6 6.039,-2.6 C -2.959,-9.479 0,-5.719 0,0 m -15.478,10.318 1.92,0 0.281,-2.599 0.08,0 c 2.079,1.599 4.518,3.159 7.118,3.159 5.68,0 8.558,-4.319 8.558,-10.878 0,-7.278 -4.399,-11.518 -9.398,-11.518 -1.999,0 -4.119,0.92 -6.278,2.6 l 0.04,-3.92 0,-7.679 -2.321,0 0,30.835 z" /></g><g
           transform="translate(391.9697,311.349)"
           id="g114"><path
             id="path116"
             style="fill:#332d2b;fill-opacity:1;fill-rule:nonzero;stroke:none"
             d="m 0,0 0,28.636 2.32,0 0,-28.875 c 0,-1 0.4,-1.441 0.959,-1.441 0.16,0 0.321,0 0.761,0.08 L 4.399,-3.439 C 4,-3.56 3.6,-3.679 2.84,-3.679 0.92,-3.679 0,-2.479 0,0" /></g><path
           id="path118"
           style="fill:#332d2b;fill-opacity:1;fill-rule:nonzero;stroke:none"
           d="m 402.649,329.506 2.32,0 0,-21.316 -2.32,0 0,21.316 z m -0.759,6.839 c 0,1.2 0.88,1.92 1.96,1.92 1.04,0 1.96,-0.72 1.96,-1.92 0,-1.08 -0.92,-1.84 -1.96,-1.84 -1.08,0 -1.96,0.76 -1.96,1.84" /><g
           transform="translate(411.1689,318.8285)"
           id="g120"><path
             id="path122"
             style="fill:#332d2b;fill-opacity:1;fill-rule:nonzero;stroke:none"
             d="m 0,0 c 0,7.118 4.6,11.237 9.879,11.237 2.839,0 4.759,-1.279 6.238,-2.599 l -1.319,-1.6 c -1.319,1.24 -2.88,2.16 -4.879,2.16 C 5.68,9.198 2.44,5.438 2.44,0 c 0,-5.439 2.959,-9.159 7.439,-9.159 2.199,0 4.119,1.08 5.559,2.359 l 1.12,-1.599 c -1.84,-1.6 -4.12,-2.759 -6.799,-2.759 C 4.199,-11.158 0,-7.079 0,0" /></g><g
           transform="translate(444.5674,312.9486)"
           id="g124"><path
             id="path126"
             style="fill:#332d2b;fill-opacity:1;fill-rule:nonzero;stroke:none"
             d="M 0,0 0,6.919 C -8.398,5.959 -11.278,4 -11.278,0.721 c 0,-2.92 2,-4.04 4.359,-4.04 2.359,0 4.399,1.12 6.919,3.319 m -13.598,0.601 c 0,4.718 4.2,6.959 13.598,8.038 0.08,3.16 -0.84,6.439 -4.879,6.439 -2.8,0 -5.239,-1.32 -6.719,-2.439 l -1.04,1.679 c 1.64,1.12 4.6,2.799 8.078,2.799 5.081,0 6.879,-3.638 6.879,-8.358 l 0,-13.518 -1.959,0 -0.24,2.72 -0.08,0 c -2.159,-1.76 -4.719,-3.239 -7.438,-3.239 -3.44,0 -6.2,1.919 -6.2,5.879" /></g><g
           transform="translate(454.3301,314.2689)"
           id="g128"><path
             id="path130"
             style="fill:#332d2b;fill-opacity:1;fill-rule:nonzero;stroke:none"
             d="m 0,0 0,13.277 -3.319,0 0,1.76 3.399,0.2 0.279,6.159 1.96,0 0,-6.159 6.119,0 0,-1.96 -6.119,0 0,-13.437 c 0,-2.68 0.72,-4.44 3.56,-4.44 0.8,0 1.84,0.281 2.6,0.601 l 0.559,-1.8 c -1.239,-0.44 -2.6,-0.8 -3.559,-0.8 C 1.279,-6.599 0,-3.959 0,0" /></g><path
           id="path132"
           style="fill:#332d2b;fill-opacity:1;fill-rule:nonzero;stroke:none"
           d="m 467.89,329.506 2.32,0 0,-21.316 -2.32,0 0,21.316 z m -0.76,6.839 c 0,1.2 0.88,1.92 1.96,1.92 1.04,0 1.96,-0.72 1.96,-1.92 0,-1.08 -0.92,-1.84 -1.96,-1.84 -1.08,0 -1.96,0.76 -1.96,1.84" /><g
           transform="translate(493.2871,318.8285)"
           id="g134"><path
             id="path136"
             style="fill:#332d2b;fill-opacity:1;fill-rule:nonzero;stroke:none"
             d="m 0,0 c 0,5.438 -3.08,9.198 -7.239,9.198 -4.159,0 -7.199,-3.76 -7.199,-9.198 0,-5.439 3.04,-9.159 7.199,-9.159 C -3.08,-9.159 0,-5.439 0,0 m -16.878,0 c 0,7.118 4.48,11.237 9.639,11.237 5.159,0 9.638,-4.119 9.638,-11.237 0,-7.079 -4.479,-11.158 -9.638,-11.158 -5.159,0 -9.639,4.079 -9.639,11.158" /></g><g
           transform="translate(501.9287,329.5062)"
           id="g138"><path
             id="path140"
             style="fill:#332d2b;fill-opacity:1;fill-rule:nonzero;stroke:none"
             d="m 0,0 1.92,0 0.28,-3.239 0.08,0 c 2.159,2.119 4.36,3.799 7.279,3.799 4.439,0 6.479,-2.759 6.479,-8.239 l 0,-13.637 -2.32,0 0,13.317 c 0,4.439 -1.4,6.479 -4.679,6.479 C 6.56,-1.52 4.8,-2.8 2.32,-5.359 l 0,-15.957 -2.32,0 L 0,0 Z" /></g></g></g></g></svg>