<?xml version="1.0" encoding="UTF-8" standalone="no"?>
<svg style="enable-background:new 0 0 505.145 505.145" xmlns="http://www.w3.org/2000/svg" xml:space="preserve" viewBox="0 0 505.145 505.145" height="512px" width="512px" version="1.1" y="0px" x="0px" xmlns:xlink="http://www.w3.org/1999/xlink">
		<g fill="#a8a8a8">
			<path d="m68.5 165h-1.29c-16.6 0-30.1 13.6-30.1 30.1v131c0 16.6 13.5 30.1 30.1 30.1h1.32c16.6 0 30.1-13.6 30.1-30.1v-131c0.1-17-13.5-30-30.1-30z"/>
			<path d="m113 377c0 15.2 12.4 27.6 27.7 27.6h29.6v70.8c0 16.6 13.6 30.2 30.1 30.2h1.29c16.6 0 30.2-13.5 30.2-30.2v-70.8h41.3v70.8c0 16.6 13.6 30.2 30.2 30.2h1.27c16.6 0 30.1-13.5 30.1-30.2v-70.8h29.6c15.2 0 27.7-12.4 27.7-27.6v-207h-279v207z"/>
			<path d="m322 44l23.5-36.3c1.51-2.29 0.841-5.41-1.47-6.9-2.29-1.51-5.41-0.884-6.9 1.47l-24.4 37.5c-18.3-7.48-38.7-11.7-60.2-11.7-21.6 0-41.9 4.21-60.2 11.7l-24.3-37.5c-1.49-2.35-4.64-2.98-6.95-1.47-2.31 1.49-2.98 4.62-1.47 6.9l23.5 36.3c-42.4 20.8-71 59.9-71 105 0 2.76 0.173 5.48 0.41 8.18h280c0.237-2.7 0.388-5.41 0.388-8.18-2-45-31-84.2-73-105zm-134 65c-7.44 0-13.5-6-13.5-13.5 0-7.46 6.04-13.4 13.5-13.4 7.48 0 13.5 5.98 13.5 13.4s-7 13.5-14 13.5zm129 0c-7.44 0-13.5-6-13.5-13.5 0-7.46 6.04-13.4 13.5-13.4s13.5 5.98 13.5 13.4c-1 7.5-7 13.5-15 13.5z"/>
			<path d="m438 165h-1.25c-16.6 0-30.2 13.6-30.2 30.1v131c0 16.6 13.6 30.1 30.2 30.1h1.27c16.6 0 30.1-13.6 30.1-30.1v-131c0-17-14-30-30-30z"/>
		</g>
</svg>
