<?xml version="1.0" encoding="UTF-8" standalone="no"?>
<!DOCTYPE svg  PUBLIC '-//W3C//DTD SVG 1.1//EN'  'http://www.w3.org/Graphics/SVG/1.1/DTD/svg11.dtd'>
<svg style="enable-background:new 0 0 312.553 312.553" xmlns="http://www.w3.org/2000/svg" xml:space="preserve" viewBox="0 0 312.553 312.553" height="512px" width="512px" version="1.1" y="0px" x="0px" xmlns:xlink="http://www.w3.org/1999/xlink">
<g fill="#a8a8a8">
	<path d="m303 0h-293c-5.52 0-10 4.48-10 10v293c0 5.52 4.48 10 10 10h293c5.52 0 10-4.48 10-10v-293c0-5.52-5-10-10-10zm-155 193c-9.48 8.3-21.6 12.9-34.1 12.9-28.1 0-51-22.4-51-49.9s22.9-49.8 51-49.8c12.5 0 24.6 4.53 34 12.8 3.87 3.39 4.26 9.28 0.868 13.2-3.39 3.87-9.28 4.26-13.2 0.869-5.99-5.24-13.7-8.14-21.7-8.14-17.8 0-32.3 14-32.3 31.2 0 17.3 14.5 31.3 32.3 31.3 7.99 0 15.7-2.93 21.8-8.25 3.88-3.39 9.76-3 13.2 0.877 3 4 3 10-1 13zm92-31c5.15 0 9.32 4.17 9.32 9.32s-4.17 9.32-9.32 9.32h-10.9l-3.38 14.9c-0.981 4.33-4.83 7.26-9.08 7.26-0.683 0-1.38-0.075-2.07-0.232-5.02-1.14-8.17-6.13-7.03-11.2l2.44-10.8h-20.2l-3.38 14.9c-0.981 4.33-4.83 7.26-9.08 7.26-0.683 0-1.38-0.075-2.07-0.232-5.02-1.14-8.17-6.13-7.03-11.2l2.45-10.8c-5.01-0.162-9.02-4.26-9.02-9.31 0-5.15 4.17-9.32 9.32-9.32h3.92l2.72-12h-6.64c-5.15 0-9.32-4.17-9.32-9.32s4.17-9.32 9.32-9.32h10.9l3.38-14.9c1.14-5.02 6.13-8.17 11.2-7.03 5.02 1.14 8.17 6.13 7.03 11.2l-2.44 10.8h20.2l3.38-14.9c1.14-5.02 6.13-8.17 11.2-7.03 5.02 1.14 8.17 6.13 7.03 11.2l-2.45 10.8c5.01 0.162 9.02 4.26 9.02 9.31 0 5.15-4.17 9.32-9.32 9.32h-3.92l-2.72 12h7z"/>
	<polygon points="194 162 214 162 217 150 197 150"/>
</g>
</svg>
