<?xml version="1.0" encoding="UTF-8" standalone="no"?>
<svg xmlns:rdf="http://www.w3.org/1999/02/22-rdf-syntax-ns#" xmlns="http://www.w3.org/2000/svg" xml:space="preserve" height="640" width="640" version="1.1" xmlns:cc="http://creativecommons.org/ns#" viewBox="0 0 640 640" xmlns:dc="http://purl.org/dc/elements/1.1/">
    <defs>
        <clipPath id="a" clipPathUnits="userSpaceOnUse"><path d="m0 0h512v512h-512v-512z"/></clipPath>
    </defs>
    <g transform="matrix(1.25,0,0,-1.25,0,640)">
            <g clip-path="url(#a)">
                <g transform="translate(484 512)"><path d="m0 0h-455c-15.6 0-28.3-12.6-28.3-28.3v-455c0-15.6 12.6-28.3 28.3-28.3h245v198h-66.7v77.3h66.7v57c0 66.1 40.4 102 99.4 102 28.3 0 52.5-2.1 59.6-3.04v-69.1l-40.9-0.019c-32.1 0-38.3-15.2-38.3-37.6v-49.3h76.5l-9.96-77.3h-66.6v-198h130c15.6 0 28.3 12.7 28.3 28.3v455c0 16.4-12.7 29-28.3 29" fill="#fff"/></g>
            </g>
    </g>
</svg>
