<?xml version="1.0" encoding="utf-8"?>
<!-- Generator: Adobe Illustrator 20.0.0, SVG Export Plug-In . SVG Version: 6.00 Build 0)  -->
<svg version="1.1" id="레이어_1" xmlns="http://www.w3.org/2000/svg" xmlns:xlink="http://www.w3.org/1999/xlink" x="0px"
	 y="0px" viewBox="0 0 64 64" style="enable-background:new 0 0 64 64;" xml:space="preserve">
<style type="text/css">
	.st0{fill-rule:evenodd;clip-rule:evenodd;fill:#FFFFFF;}
	.st1{fill:#FFFFFF;}
</style>
<g>
	<path class="st0" d="M32,1C14.4,1,0.2,15.2,0.2,32.8c0,14,9.1,26,21.7,30.2c1.6,0.3,2.2-0.7,2.2-1.5c0-0.8,0-3.3,0-5.9
		c-8.8,1.9-10.7-3.8-10.7-3.8c-1.4-3.7-3.5-4.7-3.5-4.7c-2.9-2,0.2-1.9,0.2-1.9c3.2,0.2,4.9,3.3,4.9,3.3c2.8,4.9,7.4,3.5,9.3,2.6
		c0.3-2.1,1.1-3.5,2-4.3c-7.1-0.8-14.5-3.5-14.5-15.7c0-3.5,1.2-6.3,3.3-8.5c-0.3-0.8-1.4-4,0.3-8.4c0,0,2.7-0.9,8.7,3.3
		c2.5-0.7,5.3-1.1,8-1.1c2.7,0,5.4,0.4,8,1.1c6.1-4.1,8.7-3.3,8.7-3.3c1.7,4.4,0.6,7.6,0.3,8.4c2,2.2,3.3,5.1,3.3,8.5
		c0,12.2-7.4,14.9-14.5,15.7c1.1,1,2.2,2.9,2.2,5.9c0,4.3,0,7.7,0,8.7c0,0.8,0.6,1.8,2.2,1.5c12.6-4.2,21.7-16.1,21.7-30.2
		C63.8,15.2,49.6,1,32,1z"/>
	<path class="st1" d="M12.2,46.6c-0.1,0.2-0.3,0.2-0.5,0.1c-0.2-0.1-0.4-0.3-0.3-0.5c0.1-0.2,0.3-0.2,0.5-0.1
		C12.2,46.3,12.3,46.5,12.2,46.6L12.2,46.6z M11.9,46.4"/>
	<path class="st1" d="M13.5,48.1c-0.2,0.1-0.4,0.1-0.6-0.1c-0.2-0.2-0.2-0.5-0.1-0.7c0.2-0.1,0.4-0.1,0.7,0.1
		C13.7,47.6,13.7,47.9,13.5,48.1L13.5,48.1z M13.2,47.8"/>
	<path class="st1" d="M14.8,49.9c-0.2,0.1-0.5,0-0.7-0.3c-0.2-0.3-0.2-0.6,0-0.8c0.2-0.1,0.5,0,0.7,0.3C15,49.4,15,49.8,14.8,49.9
		L14.8,49.9z M14.8,49.9"/>
	<path class="st1" d="M16.5,51.7c-0.2,0.2-0.5,0.1-0.8-0.1c-0.3-0.3-0.4-0.6-0.2-0.8c0.2-0.2,0.6-0.1,0.8,0.1
		C16.6,51.1,16.7,51.5,16.5,51.7L16.5,51.7z M16.5,51.7"/>
	<path class="st1" d="M18.9,52.7c-0.1,0.2-0.4,0.4-0.8,0.3c-0.4-0.1-0.6-0.4-0.5-0.7c0.1-0.3,0.4-0.4,0.8-0.3
		C18.7,52.2,18.9,52.5,18.9,52.7L18.9,52.7z M18.9,52.7"/>
	<path class="st1" d="M21.5,52.9c0,0.3-0.3,0.5-0.7,0.5c-0.4,0-0.7-0.2-0.7-0.5c0-0.3,0.3-0.5,0.7-0.5
		C21.2,52.4,21.5,52.6,21.5,52.9L21.5,52.9z M21.5,52.9"/>
	<path class="st1" d="M23.9,52.5c0,0.3-0.2,0.5-0.6,0.6c-0.4,0.1-0.7-0.1-0.8-0.3c0-0.3,0.2-0.5,0.6-0.6
		C23.5,52.1,23.9,52.2,23.9,52.5L23.9,52.5z M23.9,52.5"/>
</g>
</svg>
