<?xml version="1.0" encoding="UTF-8" standalone="no"?>
<svg style="enable-background:new 0 0 64 64" xmlns="http://www.w3.org/2000/svg" xml:space="preserve" viewBox="0 0 64 64" version="1.1" y="0px" x="0px" xmlns:xlink="http://www.w3.org/1999/xlink">
<style type="text/css">
	.st0{fill-rule:evenodd;clip-rule:evenodd;fill:#FFFFFF;}
	.st1{fill:#FFFFFF;}
</style>
	<path class="st0" d="m32 1c-17.6 0-31.8 14.2-31.8 31.8 0 14 9.1 26 21.7 30.2 1.6 0.3 2.2-0.7 2.2-1.5v-5.9c-8.8 1.9-10.7-3.8-10.7-3.8-1.4-3.7-3.5-4.7-3.5-4.7-2.9-2 0.2-1.9 0.2-1.9 3.2 0.2 4.9 3.3 4.9 3.3 2.8 4.9 7.4 3.5 9.3 2.6 0.3-2.1 1.1-3.5 2-4.3-7.1-0.8-14.5-3.5-14.5-15.7 0-3.5 1.2-6.3 3.3-8.5-0.3-0.8-1.4-4 0.3-8.4 0 0 2.7-0.9 8.7 3.3 2.5-0.7 5.3-1.1 8-1.1s5.4 0.4 8 1.1c6.1-4.1 8.7-3.3 8.7-3.3 1.7 4.4 0.6 7.6 0.3 8.4 2 2.2 3.3 5.1 3.3 8.5 0 12.2-7.4 14.9-14.5 15.7 1.1 1 2.2 2.9 2.2 5.9v8.7c0 0.8 0.6 1.8 2.2 1.5 12.6-4.2 21.7-16.1 21.7-30.2-0.2-17.5-14.4-31.7-32-31.7z"/>
	<path class="st1" d="m12.2 46.6c-0.1 0.2-0.3 0.2-0.5 0.1s-0.4-0.3-0.3-0.5 0.3-0.2 0.5-0.1c0.3 0.2 0.4 0.4 0.3 0.5zm-0.3-0.2"/>
	<path class="st1" d="m13.5 48.1c-0.2 0.1-0.4 0.1-0.6-0.1s-0.2-0.5-0.1-0.7c0.2-0.1 0.4-0.1 0.7 0.1 0.2 0.2 0.2 0.5 0 0.7zm-0.3-0.3"/>
	<path class="st1" d="m14.8 49.9c-0.2 0.1-0.5 0-0.7-0.3s-0.2-0.6 0-0.8c0.2-0.1 0.5 0 0.7 0.3s0.2 0.7 0 0.8z"/>
	<path class="st1" d="m16.5 51.7c-0.2 0.2-0.5 0.1-0.8-0.1-0.3-0.3-0.4-0.6-0.2-0.8s0.6-0.1 0.8 0.1c0.3 0.2 0.4 0.6 0.2 0.8z"/>
	<path class="st1" d="m18.9 52.7c-0.1 0.2-0.4 0.4-0.8 0.3s-0.6-0.4-0.5-0.7 0.4-0.4 0.8-0.3c0.3 0.2 0.5 0.5 0.5 0.7z"/>
	<path class="st1" d="m21.5 52.9c0 0.3-0.3 0.5-0.7 0.5s-0.7-0.2-0.7-0.5 0.3-0.5 0.7-0.5 0.7 0.2 0.7 0.5z"/>
	<path class="st1" d="m23.9 52.5c0 0.3-0.2 0.5-0.6 0.6s-0.7-0.1-0.8-0.3c0-0.3 0.2-0.5 0.6-0.6s0.8 0 0.8 0.3z"/>
</svg>
