<?xml version="1.0" encoding="UTF-8" standalone="no"?>
<!DOCTYPE svg  PUBLIC '-//W3C//DTD SVG 1.1//EN'  'http://www.w3.org/Graphics/SVG/1.1/DTD/svg11.dtd'>
<svg xmlns="http://www.w3.org/2000/svg" viewBox="0 0 512 512">
<title>HTML5 Logo</title>
<polygon points="108 471 74.6 101 437 101 404 471 256 512" fill="#a8a8a8"/>
<polygon points="256 481 376 447 404 131 256 131" fill="#b9b9b9"/>
<polygon points="256 268 196 268 192 222 256 222 256 176 256 176 142 176 143 188 154 314 256 314" fill="#EBEBEB"/>
<polygon points="256 386 256 386 205 373 202 336 177 336 156 336 163 408 256 433 256 433" fill="#EBEBEB"/>
<path d="m108 0h23.1v22.8h21.1v-22.8h23.1v69h-22v-23.1h-21.1v23.1h-23.1v-69z" fill="#a8a8a8"/>
<path d="m206 22.9h-20.3v-22.9h63.7v22.9h-20.3v46.1h-23.1v-46.1z" fill="#a8a8a8"/>
<path d="m260 0h24.1l14.8 24.3 14-24.3h24.1v69h-23v-34.2l-15.9 24.5h-0.397l-15.9-24.5v34.2h-22.6v-69z" fill="#a8a8a8"/>
<path d="m349 0h23.1v46.2h32.5v22.8h-55v-69z" fill="#a8a8a8"/>
<polygon points="256 268 256 314 312 314 306 373 256 386 256 433 349 408 350 400 360 280 361 268 349 268" fill="#fff"/>
<polygon points="256 176 256 205 256 222 256 222 365 222 365 222 366 222 366 212 369 188 370 176" fill="#fff"/>
</svg>
