<?xml version="1.0" encoding="utf-8"?>
<!-- Generator: Adobe Illustrator 20.0.0, SVG Export Plug-In . SVG Version: 6.00 Build 0)  -->
<svg version="1.1" xmlns="http://www.w3.org/2000/svg" xmlns:xlink="http://www.w3.org/1999/xlink" x="0px" y="0px"
	 viewBox="0 0 660 660" style="enable-background:new 0 0 660 660;" xml:space="preserve">
<style type="text/css">
	.st0{display:none;}
	.st1{fill:none;stroke:#B5B5B6;stroke-width:33;stroke-miterlimit:10;}
	.st2{fill:none;stroke:#B5B5B6;stroke-width:73;stroke-miterlimit:10;}
	.st3{fill:#B5B5B6;}
	.st4{fill:none;stroke:#B5B5B6;stroke-width:45;stroke-miterlimit:10;}
	.st5{fill:#B5B5B6;stroke:#FFFFFF;stroke-width:45;stroke-miterlimit:10;}
	.st6{fill:#B5B5B6;stroke:#B5B5B6;stroke-miterlimit:10;}
</style>
<g id="레이어_1" class="st0">
</g>
<g id="레이어_3">
</g>
<g id="레이어_4">
</g>
<g id="레이어_2">
</g>
<g id="레이어_5">
	<g>
		<path class="st1" d="M330,28.4c-4.8,0-9.5,0.1-14.3,0.3v303.5H28.5C29.7,497.8,164.2,631.6,330,631.6
			c166.5,0,301.6-135,301.6-301.6S496.5,28.4,330,28.4z"/>
		<path class="st2" d="M227.4,447.4h205.2c8.3,0,15-6.8,15-15V227.2c0-8.3-6.8-15-15-15H227.4c-8.3,0-15,6.8-15,15v205.2
			C212.4,440.7,219.1,447.4,227.4,447.4z"/>
		<path class="st3" d="M98.9,293.5L98.9,293.5c2.8-6,10-8.5,15.9-5.7l56.3,26.5c6,2.8,8.5,10,5.7,15.9l0,0c-2.8,6-10,8.5-15.9,5.7
			l-56.3-26.5C98.7,306.7,96.1,299.5,98.9,293.5z"/>
		<path class="st3" d="M101,365.9L101,365.9c2.8,6,10,8.5,15.9,5.7l56.7-26.7c6-2.8,8.5-10,5.7-15.9l0,0c-2.8-6-10-8.5-15.9-5.7
			l-56.7,26.7C100.7,352.7,98.2,359.9,101,365.9z"/>
		<path class="st3" d="M109.9,372.6L109.9,372.6c6.6,0,12-5.4,12-12l0-61.3c0-6.6-5.4-12-12-12h0c-6.6,0-12,5.4-12,12v61.3
			C97.9,367.2,103.3,372.6,109.9,372.6z"/>
		<path class="st4" d="M447.8,467.6H212.2c-11,0-20-9-20-20V212c0-11,9-20,20-20h235.6c11,0,20,9,20,20v235.6
			C467.8,458.6,458.8,467.6,447.8,467.6z"/>
		<path class="st5" d="M406.2,419H251.8c-8.3,0-15-6.8-15-15V249.7c0-8.3,6.8-15,15-15h154.3c8.3,0,15,6.8,15,15V404
			C421.2,412.3,414.4,419,406.2,419z"/>
		<path class="st6" d="M242.4,212.2L242.4,212.2c-8.3,0-15-6.8-15-15v-55.3c0-8.3,6.8-15,15-15h0c8.3,0,15,6.8,15,15v55.3
			C257.4,205.4,250.6,212.2,242.4,212.2z"/>
		<path class="st6" d="M406.2,212.2L406.2,212.2c-8.3,0-15-6.8-15-15v-55.3c0-8.3,6.8-15,15-15h0c8.3,0,15,6.8,15,15v55.3
			C421.2,205.4,414.4,212.2,406.2,212.2z"/>
		<path class="st6" d="M251.8,527.7L251.8,527.7c-8.3,0-15-6.8-15-15v-55.3c0-8.3,6.8-15,15-15h0c8.3,0,15,6.8,15,15v55.3
			C266.8,520.9,260.1,527.7,251.8,527.7z"/>
		<path class="st6" d="M406.2,527.7L406.2,527.7c-8.3,0-15-6.8-15-15v-55.3c0-8.3,6.8-15,15-15h0c8.3,0,15,6.8,15,15v55.3
			C421.2,520.9,414.4,527.7,406.2,527.7z"/>
		<path class="st6" d="M330,527.7L330,527.7c-8.3,0-15-6.8-15-15v-55.3c0-8.3,6.8-15,15-15l0,0c8.3,0,15,6.8,15,15v55.3
			C345,520.9,338.3,527.7,330,527.7z"/>
		<path class="st6" d="M450.8,245L450.8,245c0-8.3,6.8-15,15-15h55.3c8.3,0,15,6.8,15,15v0c0,8.3-6.8,15-15,15h-55.3
			C457.6,260,450.8,253.2,450.8,245z"/>
		<path class="st6" d="M450.8,408.8L450.8,408.8c0-8.3,6.8-15,15-15h55.3c8.3,0,15,6.8,15,15v0c0,8.3-6.8,15-15,15h-55.3
			C457.6,423.8,450.8,417,450.8,408.8z"/>
		<path class="st6" d="M450.8,326.9L450.8,326.9c0-8.3,6.8-15,15-15h55.3c8.3,0,15,6.8,15,15v0c0,8.3-6.8,15-15,15h-55.3
			C457.6,341.9,450.8,335.1,450.8,326.9z"/>
		<path class="st6" d="M121.8,245L121.8,245c0-8.3,6.7-15,15-15h55.3c8.3,0,15,6.8,15,15v0c0,8.3-6.8,15-15,15h-55.3
			C128.6,260,121.8,253.2,121.8,245z"/>
		<path class="st6" d="M121.8,408.8L121.8,408.8c0-8.3,6.7-15,15-15h55.3c8.3,0,15,6.8,15,15v0c0,8.3-6.8,15-15,15h-55.3
			C128.6,423.8,121.8,417,121.8,408.8z"/>
	</g>
</g>
</svg>
