<?xml version="1.0" encoding="UTF-8" standalone="no"?>
<svg style="enable-background:new 0 0 660 660" xmlns="http://www.w3.org/2000/svg" xml:space="preserve" version="1.1" y="0px" x="0px" xmlns:xlink="http://www.w3.org/1999/xlink" viewBox="0 0 660 660">
<style type="text/css">
	.st0{display:none;}
	.st1{fill:none;stroke:#B5B5B6;stroke-width:33;stroke-miterlimit:10;}
	.st2{fill:none;stroke:#B5B5B6;stroke-width:73;stroke-miterlimit:10;}
	.st3{fill:#B5B5B6;}
	.st4{fill:none;stroke:#B5B5B6;stroke-width:45;stroke-miterlimit:10;}
	.st5{fill:#B5B5B6;stroke:#FFFFFF;stroke-width:45;stroke-miterlimit:10;}
	.st6{fill:#B5B5B6;stroke:#B5B5B6;stroke-miterlimit:10;}
</style>
		<path class="st1" d="m330 28.4c-4.8 0-9.5 0.1-14.3 0.3v304h-288c1.7 165 136 299 302 299s302-135 302-302-136-302-302-302z"/>
		<path class="st2" d="m227 447h205c8.3 0 15-6.8 15-15v-205c0-8.3-6.8-15-15-15h-205c-8.3 0-15 6.8-15 15v205c0 9 7 15 15 15z"/>
		<path class="st3" d="m98.9 294c2.8-6 10-8.5 15.9-5.7l56.3 26.5c6 2.8 8.5 10 5.7 15.9-2.8 6-10 8.5-15.9 5.7l-56.3-26.5c-6.3-3-8.9-10-6.1-16z"/>
		<path class="st3" d="m101 366c2.8 6 10 8.5 15.9 5.7l56.7-26.7c6-2.8 8.5-10 5.7-15.9-2.8-6-10-8.5-15.9-5.7l-56.7 26.7c-6 3-8.8 10-6 16z"/>
		<path class="st3" d="m110 373c6.6 0 12-5.4 12-12v-61.3c0-6.6-5.4-12-12-12s-12 5.4-12 12v61.3c-0.1 6 5 12 12 12z"/>
		<path class="st4" d="m448 468h-236c-11 0-20-9-20-20v-236c0-11 9-20 20-20h236c11 0 20 9 20 20v236c0 11-9 20-20 20z"/>
		<path class="st5" d="m406 419h-154c-8.3 0-15-6.8-15-15v-154c0-8.3 6.8-15 15-15h154c8.3 0 15 6.8 15 15v154c0 8-7 15-15 15z"/>
		<path class="st6" d="m242 212c-8.3 0-15-6.8-15-15v-55.3c0-8.3 6.8-15 15-15 8.3 0 15 6.8 15 15v55.3c0 8-6 15-15 15z"/>
		<path class="st6" d="m406 212c-8.3 0-15-6.8-15-15v-55.3c0-8.3 6.8-15 15-15 8.3 0 15 6.8 15 15v55.3c0 8-7 15-15 15z"/>
		<path class="st6" d="m252 528c-8.3 0-15-6.8-15-15v-55.3c0-8.3 6.8-15 15-15 8.3 0 15 6.8 15 15v55.3c0 8-7 15-15 15z"/>
		<path class="st6" d="m406 528c-8.3 0-15-6.8-15-15v-55.3c0-8.3 6.8-15 15-15 8.3 0 15 6.8 15 15v55.3c0 8-7 15-15 15z"/>
		<path class="st6" d="m330 528c-8.3 0-15-6.8-15-15v-55.3c0-8.3 6.8-15 15-15 8.3 0 15 6.8 15 15v55.3c0 8-7 15-15 15z"/>
		<path class="st6" d="m451 245c0-8.3 6.8-15 15-15h55.3c8.3 0 15 6.8 15 15 0 8.3-6.8 15-15 15h-55.3c-8 0-15-7-15-15z"/>
		<path class="st6" d="m451 409c0-8.3 6.8-15 15-15h55.3c8.3 0 15 6.8 15 15 0 8.3-6.8 15-15 15h-55.3c-8 0-15-7-15-15z"/>
		<path class="st6" d="m451 327c0-8.3 6.8-15 15-15h55.3c8.3 0 15 6.8 15 15 0 8.3-6.8 15-15 15h-55.3c-8 0-15-7-15-15z"/>
		<path class="st6" d="m122 245c0-8.3 6.7-15 15-15h55.3c8.3 0 15 6.8 15 15 0 8.3-6.8 15-15 15h-55.3c-8 0-15-7-15-15z"/>
		<path class="st6" d="m122 409c0-8.3 6.7-15 15-15h55.3c8.3 0 15 6.8 15 15 0 8.3-6.8 15-15 15h-55.3c-8 0-15-7-15-15z"/>
</svg>
