<?xml version="1.0" encoding="UTF-8" standalone="no"?>
<svg style="enable-background:new 0 0 512 512" xmlns="http://www.w3.org/2000/svg" xml:space="preserve" viewBox="0 0 512 512" height="512px" width="512px" version="1.1" y="0px" x="0px" xmlns:xlink="http://www.w3.org/1999/xlink">
		<path d="m480 0h-448c-17.6 0-32 14.4-32 32.1v448c0 18 14.4 32 32.1 32h448c18 0 32-14 32-32v-448c0-17.6-14-32-32-32zm11 480c0 5.93-4.8 10.7-10.7 10.7h-448c-5.93 0-10.7-4.8-10.7-10.7v-448c0-5.93 4.8-10.7 10.7-10.7h448c5.93 0 10.7 4.8 10.7 10.7v448z" fill="#a8a8a8"/>
		<path d="m258 168c-2.54-8.82-7.01-16.6-13.4-23.4-6.41-6.77-15.1-12.1-26.1-16-11-3.87-25-5.8-41.9-5.8h-95.4v261h24.7v-115h55.9c12.1 0 24.1-1.09 36.1-3.26 12-2.18 22.7-5.98 32.1-11.4 9.43-5.44 17.1-12.9 23-22.3 5.92-9.43 8.88-21.4 8.88-35.9 0-11-1-20-4-29zm-26 53c-3.51 6.89-8.46 12.3-14.9 16.3-6.41 3.99-14.2 6.71-23.4 8.16-9.19 1.45-19.6 2.18-31.2 2.18h-56.6v-103h63.8c23.5 0 40.6 4.23 51.3 12.7 10.8 8.46 16.1 20.9 16.1 37.4 1 11-1 20-5 27z" fill="#a8a8a8"/>
		<path d="m431 306c-5.92-6.77-13.4-12.1-22.3-16.1-8.95-3.99-18.6-7.07-29-9.25s-20.1-4.65-29-7.44c-8.95-2.78-16.4-6.41-22.3-10.9-5.92-4.47-8.88-10.9-8.88-19.4 0-9.67 3.63-17.5 10.9-23.4 7.25-5.92 17.8-8.88 31.6-8.88s25.2 2.96 34.3 8.88c9.07 5.92 14.6 16.1 16.5 30.6h22.1c-2.66-21.3-10.3-36.4-23-45.5-12.7-9.07-29.2-13.6-49.5-13.6-21 0-37.3 5.02-48.8 15.1-11.5 10-17.2 22.9-17.2 38.6 0 12.3 2.96 21.9 8.88 28.7 5.92 6.77 13.4 12 22.3 15.6 8.95 3.63 18.6 6.35 29 8.16s20.1 3.99 29 6.53c8.95 2.54 16.4 6.05 22.3 10.5 5.92 4.47 8.88 11.3 8.88 20.5 0 4.6-0.967 8.95-2.9 13.1-1.93 4.11-4.78 7.8-8.52 11.1-3.75 3.26-8.52 5.86-14.3 7.8-5.8 1.93-12.7 2.9-20.7 2.9-16.4 0-29.1-3.33-37.9-9.97-8.82-6.65-14.9-18.1-18.3-34.3h-22.1c0.483 8.95 2.42 17.3 5.8 25 3.38 7.74 8.1 14.5 14.1 20.3 6.04 5.8 13.4 10.3 21.9 13.6 8.58 3.26 18.4 4.9 29.6 4.9s21.3-1.15 30.6-3.44c9.31-2.3 17.3-5.74 24.1-10.3 6.77-4.6 12.1-10.3 16-17.2 3.87-6.89 5.8-14.8 5.8-23.8-2-15-5-24-11-31z" fill="#a8a8a8"/>
</svg>
